<svg width="13" height="19" viewBox="0 0 13 19" fill="none" xmlns="http://www.w3.org/2000/svg">
<path d="M8.66797 0.597168H12.2988C12.5062 0.597263 12.6738 0.765364 12.6738 0.972168V3.88916C12.6737 4.09611 12.5058 4.26416 12.2988 4.26416H9.79883C9.00918 4.26421 8.7553 4.45709 8.65234 4.60986C8.59211 4.69924 8.55211 4.81793 8.53027 4.98193C8.50813 5.14937 8.50781 5.33564 8.50781 5.55518V6.84717H12.2988C12.4143 6.84717 12.5236 6.90062 12.5947 6.9917C12.6656 7.08264 12.691 7.20106 12.6631 7.31299L11.8301 10.646C11.7883 10.813 11.6379 10.9302 11.4658 10.9302H8.50781V17.6392C8.50764 17.846 8.33965 18.014 8.13281 18.0142H4.79883C4.59198 18.014 4.424 17.846 4.42383 17.6392V10.9302H1.46582C1.25872 10.9302 1.09082 10.7623 1.09082 10.5552V7.22217C1.09082 7.01506 1.25872 6.84717 1.46582 6.84717H4.42383V4.88916C4.42383 3.53962 4.85428 2.45607 5.625 1.71045C6.3934 0.967083 7.46106 0.59724 8.66797 0.597168Z" fill="black" stroke="white" stroke-width="0.5"/>
</svg>
