<svg width="41" height="42" viewBox="0 0 41 42" fill="none" xmlns="http://www.w3.org/2000/svg">
<path fill-rule="evenodd" clip-rule="evenodd" d="M3.64286 29.4963C3.70856 29.9415 3.40083 30.3547 2.95775 30.4199C2.51056 30.4852 2.10025 30.177 2.03463 29.7318C1.96901 29.2875 2.27666 28.8735 2.71974 28.8083C3.16693 28.7439 3.58134 29.0515 3.64286 29.4963ZM25.8109 12.1231C28.077 14.6377 29.7681 16.8213 30.8838 18.7804C32.9997 22.4954 32.476 26.2404 30.4016 28.9817L28.5519 30.059C28.0542 30.3488 27.5471 30.5326 27.0231 30.6224C27.2417 30.3318 27.4109 29.9842 27.5197 29.5809C27.9312 28.0559 27.0184 26.5478 25.5531 26.04L25.4582 26.0072L25.3595 25.9891C25.0208 25.9271 24.6842 25.857 24.3494 25.7802C24.6485 25.3801 24.824 24.8874 24.8098 24.294C24.8073 24.192 24.8015 24.1021 24.7922 24.0254C24.6736 23.0483 24.145 22.4122 23.444 21.989C22.8283 21.6172 22.0899 21.4321 21.4129 21.3209C20.9247 21.2408 20.4104 21.1051 20.0338 20.8592C19.7419 20.6687 19.5326 20.3929 19.5131 19.9896C19.4919 19.5531 19.6824 19.2011 19.9826 18.9571C20.2177 18.7659 20.5177 18.6331 20.843 18.5676C20.9738 18.5412 21.1085 18.5261 21.2444 18.5225C21.2588 18.5233 21.2733 18.5238 21.2879 18.5238C21.3055 18.5238 21.323 18.5232 21.3402 18.5219C21.52 18.5246 21.7011 18.5477 21.878 18.5925C22.4218 18.7303 22.9168 19.0887 23.1776 19.7097C23.3338 20.082 23.7624 20.2574 24.1348 20.1011C24.5072 19.9449 24.6825 19.5163 24.5263 19.1438C24.0672 18.0504 23.1931 17.4187 22.2323 17.1751C22.1618 17.1573 22.0908 17.1416 22.0194 17.1281V16.5612C22.0194 16.1572 21.6919 15.8297 21.2879 15.8297C20.8839 15.8297 20.5564 16.1572 20.5564 16.5612V17.139C20.0022 17.2508 19.4818 17.4847 19.0625 17.8255C18.4182 18.3493 18.0097 19.1098 18.0558 20.0581C18.102 21.0109 18.5775 21.65 19.2394 22.0822C19.8164 22.4589 20.5251 22.6538 21.1786 22.7611C21.7035 22.8472 22.2638 22.9835 22.6897 23.2405C23.0302 23.4461 23.286 23.7466 23.3407 24.1968C23.3479 24.2568 23.3519 24.3005 23.3525 24.3283C23.361 24.6863 23.1898 24.959 22.9326 25.1543C22.8453 25.2204 22.7485 25.2793 22.6447 25.331C20.7552 24.7752 18.9998 24.0548 17.134 23.4495C15.1861 22.8175 13.3708 23.5327 11.6879 24.5077L10.5418 25.1717C10.177 23.1721 10.5056 20.9712 11.7533 18.7805C12.8691 16.8215 14.5602 14.6378 16.8262 12.1233C17.1105 12.2159 17.4137 12.2662 17.7283 12.2662H24.9089C25.2234 12.2661 25.5265 12.2158 25.8109 12.1231ZM17.7282 10.9521H24.9089C25.7942 10.9521 26.5185 10.2277 26.5185 9.34261C26.5185 8.45727 25.7943 7.73307 24.9089 7.73307H17.7282C16.8428 7.73307 16.1186 8.45727 16.1186 9.34253C16.1186 10.2278 16.8428 10.9521 17.7282 10.9521ZM17.6696 6.41968L16.3476 5.09767C15.7044 4.45445 15.7044 3.40182 16.3476 2.75859C16.8947 2.21146 17.7608 2.11898 18.4119 2.53685C18.6537 2.69207 18.9314 2.71679 19.1969 2.60698C19.4622 2.49701 19.641 2.28324 19.7024 2.00244C19.8645 1.25992 20.5292 0.699566 21.3186 0.699402C22.0938 0.699402 22.7698 1.2458 22.935 2.00244C22.9963 2.28324 23.1751 2.49701 23.4405 2.60698C23.7059 2.71695 23.9836 2.69207 24.2253 2.53685C24.8648 2.12637 25.7314 2.20037 26.2896 2.75843V2.75859C26.9328 3.40182 26.9328 4.45445 26.2896 5.09767L24.9676 6.41968C24.9481 6.41927 24.9286 6.41894 24.9089 6.41894H17.7283C17.7086 6.41894 17.6891 6.41935 17.6696 6.41968ZM6.2661 29.1673L10.6494 36.9022L12.2987 35.9504C12.4587 35.8576 12.6475 35.833 12.828 35.881L23.1861 38.1623C24.5564 38.5288 25.8448 38.3477 27.0222 37.624L39.6005 29.8067C40.2857 29.3866 40.4949 28.1532 40.0232 27.3635C39.338 26.2196 37.5246 26.3546 35.1696 27.7253L29.2132 31.1944C27.9742 31.9182 26.6367 32.1524 25.1309 31.9112C24.856 31.8669 24.5853 31.8197 24.3186 31.7684C24.2611 31.7643 19.2516 30.4621 18.6772 30.3074C18.3039 30.2081 18.0823 29.8265 18.1849 29.4561C18.2834 29.0844 18.6649 28.8645 19.0342 28.9637C19.6209 29.1209 23.1739 30.1281 24.5073 30.3874C25.1884 30.4309 25.9802 30.2413 26.2511 29.2386C26.4726 28.4165 25.9884 27.5815 25.1228 27.2816C22.6898 26.8361 20.3389 25.9872 18.4516 25.3037C17.791 25.0653 17.2207 24.8593 16.7284 24.6994C15.1775 24.1964 13.7046 24.8565 12.3465 25.6446L6.2661 29.1673ZM10.4905 39.4584L3.78642 27.6123C3.7208 27.4965 3.61411 27.4136 3.48279 27.3771C3.4377 27.3652 3.39261 27.3591 3.34736 27.3591C3.26129 27.3591 3.17916 27.3808 3.10533 27.4227L0.824151 28.713C0.582121 28.8497 0.499993 29.1561 0.63534 29.3962L7.33943 41.2422C7.47486 41.4831 7.78259 41.5676 8.02051 41.4318L10.3017 40.1411C10.4166 40.0758 10.4986 39.968 10.5355 39.8387C10.5726 39.709 10.5561 39.5741 10.4905 39.4584Z" fill="#0077FF"/>
</svg>
