<svg width="40" height="46" viewBox="0 0 40 46" fill="none" xmlns="http://www.w3.org/2000/svg">
<path d="M39.7202 11.4026L34.6709 8.48708C34.5606 8.42484 34.4262 8.50613 34.4262 8.63087L34.4549 27.7878C34.4549 27.9126 34.3205 27.9941 34.2102 27.9316L14.991 16.8404C14.9382 16.8117 14.9095 16.7588 14.9095 16.6966L14.9047 9.36458C14.9047 9.30235 14.9334 9.2495 14.9862 9.22079L19.9827 6.32941C20.0307 6.3007 20.0978 6.3007 20.1458 6.32941L25.1377 9.22562C25.1906 9.25433 25.2193 9.30718 25.2193 9.36941V18.2263C25.2193 18.2885 25.248 18.3413 25.3008 18.37L30.3646 21.3094C30.4749 21.3765 30.6093 21.295 30.6093 21.1705L30.6189 6.27173C30.6189 6.20949 30.5902 6.15665 30.5374 6.12794L20.1509 0.12895C20.098 0.100246 20.0406 0.100246 19.9878 0.12895L9.58707 6.13277C9.53422 6.16147 9.50551 6.21432 9.50551 6.27656L9.51034 13.4168C9.51034 13.5415 9.37138 13.6182 9.26568 13.5557L3.0942 9.9545C3.04135 9.9258 2.97911 9.9258 2.93109 9.9545L0.389795 11.4171C0.336946 11.4458 0.308242 11.4986 0.308242 11.5609L0.298584 34.1798C0.298584 34.2421 0.327289 34.2949 0.380137 34.3236L5.43912 37.2488C5.54938 37.3159 5.68378 37.2343 5.68378 37.1098L5.68861 17.9625C5.68861 17.8378 5.82274 17.7563 5.93327 17.8188L25.1334 28.9006C25.1863 28.9293 25.215 28.9822 25.215 29.0444L25.2198 36.4003C25.2198 36.4577 25.1863 36.5154 25.1382 36.5441L20.1512 39.3877C20.0983 39.4164 20.0409 39.4164 19.9881 39.3877L14.9862 36.5248C14.9382 36.4961 14.9047 36.4384 14.9047 36.381V27.4954C14.9047 27.4332 14.876 27.3803 14.8231 27.3516L9.74508 24.4168C9.63482 24.3545 9.50042 24.4358 9.50042 24.5606V39.4642C9.50042 39.5264 9.52912 39.5792 9.58197 39.608L19.9733 45.5973C20.0261 45.626 20.0836 45.626 20.1364 45.5973L30.5326 39.6176C30.5806 39.5889 30.6141 39.5312 30.6141 39.4738L30.6045 32.3242C30.6045 32.1995 30.7389 32.1179 30.8491 32.1853L37.0541 35.772C37.1022 35.8007 37.1692 35.8007 37.2172 35.772L39.7156 34.3094C39.7685 34.2807 39.7972 34.2279 39.7972 34.1704L39.802 11.5467C39.8015 11.4842 39.7728 11.4313 39.7202 11.4026Z" fill="#0077FF"/>
</svg>
