<svg width="21" height="21" viewBox="0 0 21 21" fill="none" xmlns="http://www.w3.org/2000/svg">
<path d="M2.37207 10.3049C2.37207 6.5729 2.37207 4.70693 3.53144 3.54755C4.69081 2.38818 6.55679 2.38818 10.2887 2.38818C14.0207 2.38818 15.8867 2.38818 17.0461 3.54755C18.2054 4.70693 18.2054 6.5729 18.2054 10.3049C18.2054 14.0368 18.2054 15.9028 17.0461 17.0622C15.8867 18.2215 14.0207 18.2215 10.2887 18.2215C6.55679 18.2215 4.69081 18.2215 3.53144 17.0622C2.37207 15.9028 2.37207 14.0368 2.37207 10.3049Z" stroke="black" stroke-width="1.125" stroke-linejoin="round"/>
<path d="M14.0439 10.3052C14.0439 12.3763 12.365 14.0552 10.2939 14.0552C8.22288 14.0552 6.54395 12.3763 6.54395 10.3052C6.54395 8.23411 8.22288 6.55518 10.2939 6.55518C12.365 6.55518 14.0439 8.23411 14.0439 10.3052Z" stroke="black" stroke-width="1.125"/>
<path d="M14.8788 5.72217H14.8721" stroke="black" stroke-width="1.5" stroke-linecap="round" stroke-linejoin="round"/>
</svg>
