<svg width="302" height="291" viewBox="0 0 302 291" fill="none" xmlns="http://www.w3.org/2000/svg">
<path d="M200.624 288.79C188.944 293.039 176.071 286.747 172.249 274.921L156.355 225.743C150.923 208.934 128.865 205.112 118.093 219.113L86.7859 259.805C79.1471 269.733 64.7593 271.26 55.2066 263.156L51.2231 259.777C41.7357 251.729 40.833 237.41 49.2345 228.233L84.0401 190.218C96.0183 177.136 88.3243 155.985 70.74 153.656L19.6443 146.889C7.31064 145.255 -1.19765 133.703 0.901196 121.44L1.78243 116.291C3.89573 103.943 15.902 95.8692 28.1346 98.5694L78.2696 109.636C95.5197 113.443 109.966 96.3421 103.329 79.971L83.9113 32.0754C79.2419 20.5579 85.0632 7.46518 96.7426 3.21668L101.498 1.48678C113.177 -2.76171 126.05 3.53073 129.872 15.3565L145.766 64.5339C151.199 81.3431 173.257 85.1656 184.029 71.1647L215.336 30.4727C222.975 20.5441 237.362 19.017 246.915 27.1208L250.899 30.5001C260.386 38.5486 261.289 52.8676 252.887 62.0438L218.082 100.059C206.103 113.141 213.797 134.292 231.382 136.621L282.477 143.389C294.811 145.022 303.319 156.574 301.22 168.838L300.339 173.986C298.226 186.334 286.22 194.408 273.987 191.708L223.852 180.641C206.602 176.834 192.156 193.935 198.793 210.306L218.21 258.202C222.88 269.719 217.058 282.812 205.379 287.061L200.624 288.79Z" fill="url(#paint0_linear_141_496)"/>
<defs>
<linearGradient id="paint0_linear_141_496" x1="-48.8086" y1="332.236" x2="259.621" y2="6.91778" gradientUnits="userSpaceOnUse">
<stop stop-color="white" stop-opacity="0.6"/>
<stop offset="1" stop-color="white" stop-opacity="0"/>
</linearGradient>
</defs>
</svg>
