<svg width="61" height="61" viewBox="0 0 61 61" fill="none" xmlns="http://www.w3.org/2000/svg">
<circle cx="30.8027" cy="30.3052" r="30" fill="#0077FF"/>
<path fill-rule="evenodd" clip-rule="evenodd" d="M31.9353 18.8546L25.3229 25.714C24.8813 26.1721 24.6306 26.8035 24.6306 27.4598V39.8289C24.6306 41.1908 25.7049 42.3052 27.0178 42.3052H37.7599C38.7147 42.3052 39.5741 41.7109 39.9561 40.807L43.8471 31.3847C44.8497 28.9332 43.119 26.2092 40.5528 26.2092H33.8092L34.9431 20.5385C35.0624 19.9194 34.8834 19.288 34.4537 18.8422C33.7495 18.1241 32.6275 18.1241 31.9353 18.8546ZM19.8564 42.3051C21.1693 42.3051 22.2435 41.1908 22.2435 39.8288V29.9236C22.2435 28.5617 21.1693 27.4473 19.8564 27.4473C18.5434 27.4473 17.4692 28.5617 17.4692 29.9236V39.8288C17.4692 41.1908 18.5434 42.3051 19.8564 42.3051Z" fill="white"/>
</svg>
