<svg width="21" height="21" viewBox="0 0 21 21" fill="none" xmlns="http://www.w3.org/2000/svg">
<path d="M5.71582 8.22217H1.96582V18.6388H5.71582V8.22217Z" fill="black"/>
<path d="M5.71582 3.84717C5.71582 4.8827 4.87635 5.72217 3.84082 5.72217C2.80529 5.72217 1.96582 4.8827 1.96582 3.84717C1.96582 2.81163 2.80529 1.97217 3.84082 1.97217C4.87635 1.97217 5.71582 2.81163 5.71582 3.84717Z" fill="black"/>
<path d="M11.9659 8.22217H8.21582V18.6388H11.9659V13.4307C11.9659 12.6253 12.6187 11.9723 13.4242 11.9723C14.2296 11.9723 14.8825 12.6253 14.8825 13.4307V18.6388H18.6314L18.6326 11.9723C18.6326 9.90134 16.6628 8.22237 14.7132 8.22237C13.6032 8.22237 12.6131 8.76642 11.9659 9.61717V8.22217Z" fill="black"/>
</svg>
