<svg width="103" height="42" viewBox="0 0 103 42" fill="none" xmlns="http://www.w3.org/2000/svg">
<path d="M0.445312 16.1935V0.454197H3.08271L10.3143 11.1314V0.454197H13.1857V16.1935H10.5483L3.31668 5.70773V16.1935H0.445312Z" fill="#1A1A1A"/>
<path d="M19.8059 16.4062C18.8417 16.4062 18.0051 16.2431 17.2961 15.917C16.6013 15.5767 16.02 15.1301 15.552 14.5771C15.0983 14.0099 14.758 13.3789 14.5311 12.6841C14.3042 11.9893 14.1908 11.2803 14.1908 10.5571C14.1908 9.83398 14.2971 9.13209 14.5098 8.45147C14.7367 7.75668 15.0699 7.12568 15.5095 6.5585C15.9632 5.99132 16.5375 5.54466 17.2323 5.21853C17.9271 4.87822 18.7495 4.70807 19.6996 4.70807C20.7205 4.70807 21.6209 4.93494 22.4008 5.38869C23.1807 5.84243 23.7904 6.50887 24.2299 7.38801C24.6695 8.25296 24.8893 9.33061 24.8893 10.6209V11.3441H17.0409C17.0834 12.1098 17.3458 12.7762 17.8279 13.3434C18.31 13.8964 18.9693 14.1729 19.8059 14.1729C20.288 14.1729 20.685 14.0949 20.997 13.939C21.3089 13.783 21.55 13.6057 21.7202 13.4072C21.8903 13.1945 22.0108 13.0173 22.0817 12.8755C22.1526 12.7195 22.1881 12.6415 22.1881 12.6415H24.8042C24.8042 12.6415 24.7688 12.7692 24.6979 13.0244C24.627 13.2654 24.4923 13.5774 24.2937 13.9602C24.1094 14.3289 23.8329 14.7047 23.4642 15.0875C23.0956 15.4562 22.6135 15.7681 22.0179 16.0234C21.4224 16.2786 20.685 16.4062 19.8059 16.4062ZM17.0409 9.49367H22.1668C22.1243 8.61454 21.8619 7.96228 21.3798 7.53689C20.8977 7.11151 20.3306 6.89881 19.6783 6.89881C18.9551 6.89881 18.3525 7.13277 17.8704 7.6007C17.3883 8.05445 17.1118 8.68544 17.0409 9.49367Z" fill="#1A1A1A"/>
<path d="M24.6778 16.1935L28.1872 10.5784L24.6565 4.92076H27.6342L30.0802 8.87686L32.5687 4.92076H35.5251L31.9093 10.5784L35.5251 16.1935H32.5474L30.0802 12.2374L27.6342 16.1935H24.6778Z" fill="#1A1A1A"/>
<path d="M41.179 16.4062C40.4133 16.4062 39.7823 16.2928 39.286 16.0659C38.7897 15.839 38.3998 15.5413 38.1162 15.1726C37.8468 14.8039 37.6553 14.3998 37.5419 13.9602C37.4285 13.5207 37.3717 13.0882 37.3717 12.6628V7.19658H35.4362V4.92076H37.3717V2.11321H40.2006V4.92076H42.7316V7.19658H40.2006V12.599C40.2006 13.6057 40.7677 14.1091 41.9021 14.1091C42.1715 14.1091 42.4197 14.0949 42.6465 14.0666C42.8876 14.024 43.0081 14.0028 43.0081 14.0028V16.2148C43.0081 16.2148 42.8238 16.2432 42.4551 16.2999C42.1006 16.3708 41.6752 16.4062 41.179 16.4062Z" fill="#1A1A1A"/>
<path d="M52.921 16.4062C51.9426 16.4062 51.106 16.2857 50.4112 16.0446C49.7164 15.8036 49.135 15.4916 48.6671 15.1088C48.2134 14.7259 47.8518 14.3218 47.5824 13.8964C47.313 13.4569 47.1073 13.0457 46.9656 12.6628C46.8379 12.28 46.7529 11.968 46.7103 11.727C46.6678 11.4859 46.6465 11.3654 46.6465 11.3654H49.5817C49.5817 11.3654 49.5959 11.4505 49.6242 11.6206C49.6668 11.7908 49.7518 12.0105 49.8795 12.28C50.0071 12.5352 50.1914 12.7904 50.4325 13.0457C50.6877 13.3009 51.0209 13.5207 51.4321 13.705C51.8575 13.8752 52.3821 13.9602 53.0061 13.9602C53.9703 13.9602 54.7005 13.7475 55.1968 13.3222C55.7073 12.8826 55.9625 12.3438 55.9625 11.7057C55.9625 11.1669 55.7711 10.7415 55.3882 10.4295C55.0054 10.1034 54.4382 9.86234 53.6867 9.70637L51.6023 9.25971C50.794 9.08956 50.0354 8.83432 49.3265 8.49401C48.6316 8.1537 48.0716 7.69287 47.6462 7.11151C47.2208 6.53014 47.0081 5.78572 47.0081 4.87822C47.0081 3.92819 47.2421 3.10578 47.71 2.41098C48.1921 1.71618 48.8514 1.18444 49.688 0.815775C50.5246 0.432926 51.503 0.241502 52.6232 0.241502C53.6867 0.241502 54.5658 0.397477 55.2606 0.709428C55.9554 1.02138 56.5084 1.40423 56.9196 1.85797C57.345 2.31172 57.6569 2.76547 57.8555 3.21921C58.054 3.67296 58.1816 4.05581 58.2383 4.36776C58.3092 4.67971 58.3447 4.83568 58.3447 4.83568H55.5158C55.5158 4.83568 55.4875 4.72934 55.4308 4.51664C55.374 4.28977 55.2464 4.03454 55.0479 3.75095C54.8494 3.46736 54.5516 3.21921 54.1546 3.00652C53.7576 2.77965 53.2258 2.66621 52.5594 2.66621C51.6094 2.66621 50.9146 2.8789 50.475 3.30429C50.0496 3.72968 49.8369 4.19051 49.8369 4.6868C49.8369 5.19726 50.0354 5.59429 50.4325 5.87788C50.8295 6.16147 51.3612 6.38126 52.0277 6.53723L54.2609 7.00516C55.0975 7.18949 55.8632 7.46599 56.558 7.83466C57.2528 8.20333 57.8058 8.69253 58.217 9.30225C58.6283 9.89779 58.8339 10.6422 58.8339 11.5355C58.8339 12.443 58.607 13.2654 58.1532 14.0028C57.6995 14.7401 57.033 15.3286 56.1539 15.7681C55.2748 16.1935 54.1971 16.4062 52.921 16.4062Z" fill="#1A1A1A"/>
<path d="M64.2203 4.70807C64.9435 4.70807 65.539 4.82859 66.0069 5.06965C66.4749 5.29652 66.8435 5.55175 67.113 5.83534C67.3824 6.10476 67.5667 6.32454 67.666 6.49469H67.7936V4.92076H70.6224V16.1935H67.7936V14.6196H67.666C67.5667 14.7897 67.3824 15.0166 67.113 15.3002C66.8435 15.5838 66.4749 15.839 66.0069 16.0659C65.539 16.2928 64.9435 16.4062 64.2203 16.4062C63.3837 16.4062 62.6535 16.2431 62.0296 15.917C61.4057 15.5767 60.881 15.1301 60.4556 14.5771C60.0444 14.0099 59.7325 13.3789 59.5198 12.6841C59.3213 11.9893 59.222 11.2803 59.222 10.5571C59.222 9.83398 59.3213 9.125 59.5198 8.43021C59.7325 7.73541 60.0444 7.11151 60.4556 6.5585C60.881 5.99132 61.4057 5.54466 62.0296 5.21853C62.6535 4.87822 63.3837 4.70807 64.2203 4.70807ZM64.9647 7.02643C64.3267 7.02643 63.7878 7.20367 63.3483 7.55816C62.9229 7.89847 62.6038 8.33804 62.3912 8.87686C62.1785 9.41569 62.0721 9.97578 62.0721 10.5571C62.0721 11.1385 62.1785 11.6986 62.3912 12.2374C62.6038 12.7762 62.9229 13.2229 63.3483 13.5774C63.7878 13.9177 64.3267 14.0879 64.9647 14.0879C65.6028 14.0879 66.1346 13.9177 66.5599 13.5774C66.9853 13.2229 67.3044 12.7762 67.5171 12.2374C67.7298 11.6986 67.8361 11.1385 67.8361 10.5571C67.8361 9.97578 67.7298 9.41569 67.5171 8.87686C67.3044 8.33804 66.9853 7.89847 66.5599 7.55816C66.1346 7.20367 65.6028 7.02643 64.9647 7.02643Z" fill="#1A1A1A"/>
<path d="M71.9261 16.1935L71.9474 0.0288086H74.755V16.1935H71.9261Z" fill="#1A1A1A"/>
<path d="M81.379 16.4062C80.4148 16.4062 79.5782 16.2431 78.8693 15.917C78.1745 15.5767 77.5931 15.1301 77.1252 14.5771C76.6714 14.0099 76.3311 13.3789 76.1042 12.6841C75.8774 11.9893 75.7639 11.2803 75.7639 10.5571C75.7639 9.83398 75.8703 9.13209 76.083 8.45147C76.3098 7.75668 76.6431 7.12568 77.0826 6.5585C77.5364 5.99132 78.1106 5.54466 78.8054 5.21853C79.5002 4.87822 80.3227 4.70807 81.2727 4.70807C82.2936 4.70807 83.194 4.93494 83.9739 5.38869C84.7538 5.84243 85.3635 6.50887 85.8031 7.38801C86.2426 8.25296 86.4624 9.33061 86.4624 10.6209V11.3441H78.614C78.6566 12.1098 78.9189 12.7762 79.401 13.3434C79.8831 13.8964 80.5424 14.1729 81.379 14.1729C81.8611 14.1729 82.2582 14.0949 82.5701 13.939C82.8821 13.783 83.1231 13.6057 83.2933 13.4072C83.4634 13.1945 83.584 13.0173 83.6549 12.8755C83.7258 12.7195 83.7612 12.6415 83.7612 12.6415H86.3773C86.3773 12.6415 86.3419 12.7692 86.271 13.0244C86.2001 13.2654 86.0654 13.5774 85.8669 13.9602C85.6825 14.3289 85.406 14.7047 85.0374 15.0875C84.6687 15.4562 84.1866 15.7681 83.591 16.0234C82.9955 16.2786 82.2582 16.4062 81.379 16.4062ZM78.614 9.49367H83.7399C83.6974 8.61454 83.4351 7.96228 82.953 7.53689C82.4709 7.11151 81.9037 6.89881 81.2514 6.89881C80.5283 6.89881 79.9256 7.13277 79.4435 7.6007C78.9614 8.05445 78.6849 8.68544 78.614 9.49367Z" fill="#1A1A1A"/>
<path d="M0.445312 37.4629V21.7236H6.10296C7.37912 21.7236 8.49222 21.9504 9.44225 22.4042C10.4065 22.8437 11.2076 23.4393 11.8457 24.1908C12.4838 24.9423 12.9588 25.786 13.2707 26.7219C13.5969 27.6577 13.7599 28.6148 13.7599 29.5932C13.7599 30.5716 13.5969 31.5287 13.2707 32.4646C12.9588 33.4004 12.4838 34.2441 11.8457 34.9956C11.2076 35.7472 10.4065 36.3498 9.44225 36.8035C8.49222 37.2431 7.37912 37.4629 6.10296 37.4629H0.445312ZM5.97535 24.2546H3.33795V34.9106H5.97535C7.08135 34.9106 7.99593 34.6553 8.71909 34.1449C9.44225 33.6202 9.98108 32.9538 10.3356 32.1455C10.6901 31.3231 10.8673 30.4653 10.8673 29.5719C10.8673 28.6928 10.6901 27.8491 10.3356 27.0409C9.98108 26.2185 9.44225 25.552 8.71909 25.0416C7.99593 24.5169 7.08135 24.2546 5.97535 24.2546Z" fill="#1A1A1A"/>
<path d="M19.889 37.6756C18.9248 37.6756 18.0882 37.5125 17.3792 37.1864C16.6844 36.8461 16.103 36.3994 15.6351 35.8464C15.1814 35.2792 14.8411 34.6482 14.6142 33.9534C14.3873 33.2586 14.2739 32.5497 14.2739 31.8265C14.2739 31.1033 14.3802 30.4015 14.5929 29.7208C14.8198 29.026 15.153 28.395 15.5926 27.8279C16.0463 27.2607 16.6206 26.814 17.3154 26.4879C18.0102 26.1476 18.8326 25.9774 19.7826 25.9774C20.8036 25.9774 21.704 26.2043 22.4839 26.658C23.2637 27.1118 23.8735 27.7782 24.313 28.6574C24.7526 29.5223 24.9724 30.6 24.9724 31.8903V32.6135H17.124C17.1665 33.3792 17.4288 34.0456 17.9109 34.6128C18.393 35.1658 19.0524 35.4423 19.889 35.4423C20.3711 35.4423 20.7681 35.3643 21.0801 35.2083C21.392 35.0524 21.6331 34.8751 21.8032 34.6766C21.9734 34.4639 22.0939 34.2867 22.1648 34.1449C22.2357 33.9889 22.2712 33.9109 22.2712 33.9109H24.8873C24.8873 33.9109 24.8518 34.0385 24.7809 34.2937C24.71 34.5348 24.5753 34.8467 24.3768 35.2296C24.1925 35.5983 23.916 35.974 23.5473 36.3569C23.1787 36.7255 22.6966 37.0375 22.101 37.2927C21.5055 37.548 20.7681 37.6756 19.889 37.6756ZM17.124 30.763H22.2499C22.2074 29.8839 21.945 29.2316 21.4629 28.8062C20.9808 28.3809 20.4136 28.1682 19.7614 28.1682C19.0382 28.1682 18.4356 28.4021 17.9535 28.8701C17.4714 29.3238 17.1949 29.9548 17.124 30.763Z" fill="#1A1A1A"/>
<path d="M28.7778 37.4629L24.5877 26.1901H27.4591L30.2879 34.2299L33.0742 26.1901H35.9455L31.7342 37.4629H28.7778Z" fill="#1A1A1A"/>
<path d="M41.1667 37.6756C40.2024 37.6756 39.3659 37.5125 38.6569 37.1864C37.9621 36.8461 37.3807 36.3994 36.9128 35.8464C36.459 35.2792 36.1187 34.6482 35.8919 33.9534C35.665 33.2586 35.5515 32.5497 35.5515 31.8265C35.5515 31.1033 35.6579 30.4015 35.8706 29.7208C36.0975 29.026 36.4307 28.395 36.8703 27.8279C37.324 27.2607 37.8983 26.814 38.5931 26.4879C39.2879 26.1476 40.1103 25.9774 41.0603 25.9774C42.0812 25.9774 42.9816 26.2043 43.7615 26.658C44.5414 27.1118 45.1511 27.7782 45.5907 28.6574C46.0303 29.5223 46.25 30.6 46.25 31.8903V32.6135H38.4016C38.4442 33.3792 38.7065 34.0456 39.1886 34.6128C39.6707 35.1658 40.3301 35.4423 41.1667 35.4423C41.6488 35.4423 42.0458 35.3643 42.3577 35.2083C42.6697 35.0524 42.9107 34.8751 43.0809 34.6766C43.2511 34.4639 43.3716 34.2867 43.4425 34.1449C43.5134 33.9889 43.5488 33.9109 43.5488 33.9109H46.165C46.165 33.9109 46.1295 34.0385 46.0586 34.2937C45.9877 34.5348 45.853 34.8467 45.6545 35.2296C45.4702 35.5983 45.1937 35.974 44.825 36.3569C44.4563 36.7255 43.9742 37.0375 43.3787 37.2927C42.7831 37.548 42.0458 37.6756 41.1667 37.6756ZM38.4016 30.763H43.5276C43.485 29.8839 43.2227 29.2316 42.7406 28.8062C42.2585 28.3809 41.6913 28.1682 41.039 28.1682C40.3159 28.1682 39.7133 28.4021 39.2311 28.8701C38.749 29.3238 38.4725 29.9548 38.4016 30.763Z" fill="#1A1A1A"/>
<path d="M47.2587 37.4629L47.2799 21.2982H50.0875V37.4629H47.2587Z" fill="#1A1A1A"/>
<path d="M56.8817 37.6756C55.6481 37.6756 54.5988 37.3991 53.7339 36.8461C52.8689 36.2931 52.2096 35.577 51.7558 34.6979C51.3162 33.8046 51.0965 32.8474 51.0965 31.8265C51.0965 30.8056 51.3162 29.8555 51.7558 28.9764C52.2096 28.0831 52.8689 27.3599 53.7339 26.8069C54.5988 26.2539 55.6481 25.9774 56.8817 25.9774C58.1295 25.9774 59.1788 26.2539 60.0296 26.8069C60.8945 27.3599 61.5468 28.0831 61.9864 28.9764C62.4401 29.8555 62.667 30.8056 62.667 31.8265C62.667 32.8474 62.4401 33.8046 61.9864 34.6979C61.5468 35.577 60.8945 36.2931 60.0296 36.8461C59.1788 37.3991 58.1295 37.6756 56.8817 37.6756ZM56.8817 35.3147C57.5198 35.3147 58.0515 35.1516 58.4769 34.8255C58.9165 34.4993 59.2497 34.074 59.4766 33.5493C59.7035 33.0105 59.8169 32.4362 59.8169 31.8265C59.8169 31.2026 59.7035 30.6283 59.4766 30.1037C59.2497 29.579 58.9165 29.1536 58.4769 28.8275C58.0515 28.5014 57.5198 28.3383 56.8817 28.3383C56.2578 28.3383 55.7261 28.5014 55.2865 28.8275C54.847 29.1536 54.5137 29.579 54.2869 30.1037C54.06 30.6283 53.9466 31.2026 53.9466 31.8265C53.9466 32.4362 54.06 33.0105 54.2869 33.5493C54.5137 34.074 54.847 34.4993 55.2865 34.8255C55.7261 35.1516 56.2578 35.3147 56.8817 35.3147Z" fill="#1A1A1A"/>
<path d="M63.676 41.6317V26.1901H66.5048V27.764H66.6537C66.7529 27.5939 66.9302 27.367 67.1854 27.0834C67.4548 26.7998 67.8235 26.5446 68.2914 26.3177C68.7593 26.0909 69.3549 25.9774 70.078 25.9774C70.9288 25.9774 71.6661 26.1476 72.29 26.4879C72.9139 26.814 73.4315 27.2607 73.8427 27.8279C74.2539 28.3809 74.5588 29.0048 74.7573 29.6996C74.97 30.3944 75.0763 31.1033 75.0763 31.8265C75.0763 32.5497 74.97 33.2586 74.7573 33.9534C74.5588 34.6482 74.2539 35.2792 73.8427 35.8464C73.4315 36.3994 72.9139 36.8461 72.29 37.1864C71.6661 37.5125 70.9288 37.6756 70.078 37.6756C69.3549 37.6756 68.7593 37.5621 68.2914 37.3353C67.8235 37.0942 67.4548 36.8319 67.1854 36.5483C66.9302 36.2647 66.7529 36.0449 66.6537 35.8889H66.5048V41.6317H63.676ZM66.4622 31.8265C66.4622 32.4079 66.5686 32.968 66.7813 33.5068C66.994 34.0456 67.313 34.4923 67.7384 34.8467C68.1638 35.1871 68.6955 35.3572 69.3336 35.3572C69.9859 35.3572 70.5247 35.1871 70.9501 34.8467C71.3755 34.4923 71.6945 34.0456 71.9072 33.5068C72.1199 32.968 72.2262 32.4079 72.2262 31.8265C72.2262 31.2451 72.1199 30.685 71.9072 30.1462C71.6945 29.6074 71.3755 29.1678 70.9501 28.8275C70.5247 28.473 69.9859 28.2958 69.3336 28.2958C68.6955 28.2958 68.1638 28.473 67.7384 28.8275C67.313 29.1678 66.994 29.6074 66.7813 30.1462C66.5686 30.685 66.4622 31.2451 66.4622 31.8265Z" fill="#1A1A1A"/>
<path d="M77.6523 24.446C77.156 24.446 76.7448 24.283 76.4186 23.9568C76.1067 23.6307 75.9507 23.2408 75.9507 22.787C75.9507 22.3333 76.1067 21.9433 76.4186 21.6172C76.7448 21.2911 77.156 21.128 77.6523 21.128C78.1485 21.128 78.5597 21.2911 78.8859 21.6172C79.212 21.9433 79.3751 22.3333 79.3751 22.787C79.3751 23.2408 79.212 23.6307 78.8859 23.9568C78.5597 24.283 78.1485 24.446 77.6523 24.446ZM76.2485 37.4629V26.1901H79.0773V37.4629H76.2485Z" fill="#1A1A1A"/>
<path d="M80.4206 37.4629V26.1901H83.2494V27.8066H83.377C83.4905 27.6081 83.6677 27.367 83.9088 27.0834C84.1498 26.7857 84.483 26.5304 84.9084 26.3177C85.3338 26.0909 85.8726 25.9774 86.5249 25.9774C87.3898 25.9774 88.0988 26.1759 88.6518 26.573C89.219 26.9558 89.6373 27.4663 89.9067 28.1044C90.1903 28.7424 90.3321 29.4302 90.3321 30.1675V37.4629H87.5033V30.5503C87.5033 29.9406 87.3331 29.416 86.9928 28.9764C86.6525 28.5368 86.142 28.3171 85.4614 28.3171C84.9368 28.3171 84.5114 28.4518 84.1853 28.7212C83.8591 28.9764 83.6181 29.3096 83.4621 29.7208C83.3203 30.132 83.2494 30.5645 83.2494 31.0183V37.4629H80.4206Z" fill="#1A1A1A"/>
<path d="M96.9455 41.972C95.9388 41.972 95.1022 41.8373 94.4358 41.5679C93.7835 41.3126 93.266 40.9936 92.8831 40.6107C92.5003 40.2421 92.2167 39.8663 92.0323 39.4835C91.848 39.1006 91.7275 38.7816 91.6708 38.5263C91.614 38.2711 91.5857 38.1435 91.5857 38.1435H94.3507C94.3507 38.1435 94.3791 38.2215 94.4358 38.3775C94.4925 38.5334 94.6059 38.7107 94.7761 38.9092C94.9604 39.1219 95.2227 39.3062 95.563 39.4622C95.9034 39.6182 96.3571 39.6962 96.9243 39.6962C97.9168 39.6962 98.6329 39.4126 99.0725 38.8454C99.5121 38.2782 99.7318 37.5905 99.7318 36.7823V35.5274H99.6042C99.4482 35.7684 99.2214 36.0307 98.9236 36.3143C98.64 36.5979 98.2642 36.839 97.7963 37.0375C97.3426 37.236 96.7896 37.3353 96.1373 37.3353C95.3007 37.3353 94.5705 37.1722 93.9466 36.8461C93.3227 36.5199 92.798 36.0875 92.3726 35.5486C91.9473 35.0098 91.6282 34.4072 91.4155 33.7407C91.217 33.0601 91.1177 32.3653 91.1177 31.6563C91.1177 30.9474 91.217 30.2597 91.4155 29.5932C91.6282 28.9126 91.9473 28.3029 92.3726 27.764C92.798 27.211 93.3227 26.7786 93.9466 26.4666C94.5705 26.1405 95.3007 25.9774 96.1373 25.9774C96.7896 25.9774 97.3426 26.0767 97.7963 26.2752C98.2642 26.4737 98.64 26.7148 98.9236 26.9984C99.2214 27.2678 99.4482 27.523 99.6042 27.764H99.7318V26.1901H102.561V36.761C102.561 37.7394 102.355 38.6185 101.944 39.3984C101.533 40.1924 100.909 40.8163 100.072 41.2701C99.2497 41.738 98.2075 41.972 96.9455 41.972ZM96.8817 35.0594C97.5198 35.0594 98.0516 34.8964 98.4769 34.5702C98.9023 34.2299 99.2214 33.8046 99.4341 33.2941C99.6468 32.7694 99.7531 32.2235 99.7531 31.6563C99.7531 31.075 99.6468 30.5291 99.4341 30.0186C99.2214 29.494 98.9023 29.0686 98.4769 28.7424C98.0516 28.4163 97.5198 28.2532 96.8817 28.2532C96.2295 28.2532 95.6836 28.4163 95.244 28.7424C94.8186 29.0686 94.4996 29.494 94.2869 30.0186C94.0742 30.5291 93.9678 31.075 93.9678 31.6563C93.9678 32.2235 94.0742 32.7694 94.2869 33.2941C94.4996 33.8046 94.8186 34.2299 95.244 34.5702C95.6836 34.8964 96.2295 35.0594 96.8817 35.0594Z" fill="#1A1A1A"/>
</svg>
