<svg width="61" height="61" viewBox="0 0 61 61" fill="none" xmlns="http://www.w3.org/2000/svg">
<circle cx="30.8027" cy="30.3052" r="30" fill="#0077FF"/>
<g clip-path="url(#clip0_141_336)">
<path d="M24.8028 21.7718L28.1361 23.6385L26.2695 20.3052L28.1361 16.9718L24.8028 18.8385L21.4695 16.9718L23.3361 20.3052L21.4695 23.6385L24.8028 21.7718ZM40.8028 34.8385L37.4695 32.9718L39.3361 36.3052L37.4695 39.6385L40.8028 37.7718L44.1361 39.6385L42.2695 36.3052L44.1361 32.9718L40.8028 34.8385ZM44.1361 16.9718L40.8028 18.8385L37.4695 16.9718L39.3361 20.3052L37.4695 23.6385L40.8028 21.7718L44.1361 23.6385L42.2695 20.3052L44.1361 16.9718ZM33.9628 24.0252C33.4428 23.5052 32.6028 23.5052 32.0828 24.0252L16.5228 39.5852C16.0028 40.1052 16.0028 40.9452 16.5228 41.4652L19.6428 44.5852C20.1628 45.1052 21.0028 45.1052 21.5228 44.5852L37.0695 29.0385C37.5895 28.5185 37.5895 27.6785 37.0695 27.1585L33.9628 24.0252ZM32.5895 31.3452L29.7628 28.5185L33.0161 25.2652L35.8428 28.0918L32.5895 31.3452Z" fill="white"/>
</g>
<defs>
<clipPath id="clip0_141_336">
<rect width="32" height="32" fill="white" transform="translate(14.8027 14.3052)"/>
</clipPath>
</defs>
</svg>
