<svg width="16" height="16" viewBox="0 0 16 16" fill="none" xmlns="http://www.w3.org/2000/svg">
<path d="M14.9366 6.86768H9.24202V1.24268C9.24202 0.994035 9.14203 0.755579 8.96404 0.579763C8.78605 0.403948 8.54464 0.305176 8.29293 0.305176C8.04121 0.305176 7.79981 0.403948 7.62182 0.579763C7.44383 0.755579 7.34384 0.994035 7.34384 1.24268V6.86768H1.64929C1.39757 6.86768 1.15617 6.96645 0.978178 7.14226C0.800189 7.31808 0.700195 7.55654 0.700195 7.80518C0.700195 8.05382 0.800189 8.29227 0.978178 8.46809C1.15617 8.6439 1.39757 8.74268 1.64929 8.74268H7.34384V14.3677C7.34384 14.6163 7.44383 14.8548 7.62182 15.0306C7.79981 15.2064 8.04121 15.3052 8.29293 15.3052C8.54464 15.3052 8.78605 15.2064 8.96404 15.0306C9.14203 14.8548 9.24202 14.6163 9.24202 14.3677V8.74268H14.9366C15.1883 8.74268 15.4297 8.6439 15.6077 8.46809C15.7857 8.29227 15.8857 8.05382 15.8857 7.80518C15.8857 7.55654 15.7857 7.31808 15.6077 7.14226C15.4297 6.96645 15.1883 6.86768 14.9366 6.86768Z" fill="#090914"/>
</svg>
