<svg width="77" height="36" viewBox="0 0 77 36" fill="none" xmlns="http://www.w3.org/2000/svg">
<rect x="0.728516" width="76" height="36" rx="18" fill="#06BA8D"/>
<path fill-rule="evenodd" clip-rule="evenodd" d="M22.7288 24.0745L27.2184 26.8368C28.0406 27.343 29.0467 26.5947 28.8303 25.6482L27.6403 20.4537L31.6106 16.9541C32.3354 16.3157 31.946 15.1052 30.994 15.0281L25.7688 14.5769L23.7241 9.66857C23.3563 8.77714 22.1014 8.77714 21.7335 9.66857L19.6889 14.5659L14.4637 15.0171C13.5117 15.0942 13.1222 16.3047 13.847 16.943L17.8173 20.4427L16.6273 25.6372C16.411 26.5837 17.4171 27.332 18.2392 26.8258L22.7288 24.0745Z" fill="#FFDC60"/>
<path d="M43.4805 25.192C42.8512 25.192 42.2485 25.0747 41.6725 24.84C41.1072 24.6053 40.6165 24.2747 40.2005 23.848C39.7952 23.4107 39.5178 22.8933 39.3685 22.296L41.2565 21.624C41.4378 22.168 41.7312 22.5733 42.1365 22.84C42.5418 23.096 42.9898 23.224 43.4805 23.224C43.8858 23.224 44.2432 23.1387 44.5525 22.968C44.8725 22.7867 45.1178 22.5413 45.2885 22.232C45.4592 21.912 45.5445 21.544 45.5445 21.128C45.5445 20.712 45.4538 20.3493 45.2725 20.04C45.1018 19.7307 44.8618 19.4907 44.5525 19.32C44.2432 19.1387 43.8858 19.048 43.4805 19.048C43.0645 19.048 42.6858 19.1387 42.3445 19.32C42.0138 19.5013 41.7738 19.7627 41.6245 20.104L39.8485 19.704L40.7925 13.08H47.2885V14.92H41.6565L42.4725 13.976L41.8005 18.968L41.1765 18.456C41.4752 18.0187 41.8378 17.6987 42.2645 17.496C42.7018 17.2933 43.2298 17.192 43.8485 17.192C44.6378 17.192 45.3205 17.3627 45.8965 17.704C46.4832 18.0453 46.9365 18.5093 47.2565 19.096C47.5765 19.6827 47.7365 20.36 47.7365 21.128C47.7365 21.896 47.5498 22.5893 47.1765 23.208C46.8032 23.8267 46.2965 24.312 45.6565 24.664C45.0165 25.016 44.2912 25.192 43.4805 25.192ZM50.5403 25V22.76H52.6523V25H50.5403ZM60.2831 25.192C59.3338 25.192 58.5018 24.936 57.7871 24.424C57.0725 23.912 56.5125 23.192 56.1071 22.264C55.7125 21.336 55.5151 20.2587 55.5151 19.032C55.5151 17.7947 55.7125 16.7173 56.1071 15.8C56.5018 14.8827 57.0565 14.168 57.7711 13.656C58.4858 13.144 59.3178 12.888 60.2671 12.888C61.2378 12.888 62.0751 13.144 62.7791 13.656C63.4938 14.168 64.0538 14.888 64.4591 15.816C64.8645 16.7333 65.0671 17.8053 65.0671 19.032C65.0671 20.2587 64.8645 21.336 64.4591 22.264C64.0645 23.1813 63.5098 23.9013 62.7951 24.424C62.0805 24.936 61.2431 25.192 60.2831 25.192ZM60.2991 23.208C60.8431 23.208 61.3071 23.0427 61.6911 22.712C62.0751 22.3707 62.3685 21.8907 62.5711 21.272C62.7845 20.6427 62.8911 19.896 62.8911 19.032C62.8911 18.168 62.7845 17.4267 62.5711 16.808C62.3685 16.1787 62.0698 15.6987 61.6751 15.368C61.2911 15.0373 60.8218 14.872 60.2671 14.872C59.7338 14.872 59.2751 15.0373 58.8911 15.368C58.5071 15.6987 58.2085 16.1787 57.9951 16.808C57.7925 17.4267 57.6911 18.168 57.6911 19.032C57.6911 19.8853 57.7925 20.6267 57.9951 21.256C58.2085 21.8747 58.5071 22.3547 58.8911 22.696C59.2858 23.0373 59.7551 23.208 60.2991 23.208Z" fill="white"/>
</svg>
