<svg width="35" height="38" viewBox="0 0 35 38" fill="none" xmlns="http://www.w3.org/2000/svg">
<path d="M17.8189 35.0831C18.3963 35.0831 18.8644 34.5789 18.8644 33.9569C18.8644 33.335 18.3963 32.8307 17.8189 32.8307C17.2415 32.8307 16.7734 33.335 16.7734 33.9569C16.7734 34.5789 17.2415 35.0831 17.8189 35.0831Z" fill="#0077FF"/>
<path d="M27.3958 26.6125C28.9114 26.6125 30.1401 25.2889 30.1401 23.6563C30.1401 22.0236 28.9114 20.7001 27.3958 20.7001C25.8801 20.7001 24.6514 22.0236 24.6514 23.6563C24.6514 25.2889 25.8801 26.6125 27.3958 26.6125Z" fill="#0077FF"/>
<path d="M32.305 18.3672C31.0918 17.059 29.4762 16.2742 27.7628 16.1608C26.0494 16.0475 24.3567 16.6135 23.0041 17.7521C21.6515 18.8906 20.7324 20.523 20.4202 22.3413C20.1081 24.1596 20.4244 26.038 21.3096 27.6223L16.3771 30.8387C15.9661 31.1066 15.6171 31.4717 15.3565 31.9063C15.0959 32.3409 14.9304 32.8337 14.8726 33.3474C14.8148 33.861 14.8663 34.3821 15.023 34.8712C15.1797 35.3603 15.4377 35.8046 15.7773 36.1705C16.117 36.5363 16.5294 36.8142 16.9835 36.9831C17.4375 37.1519 17.9213 37.2074 18.3981 37.1451C18.875 37.0829 19.3325 36.9047 19.736 36.6239C20.1395 36.3432 20.4784 35.9673 20.7271 35.5246L23.7128 30.2117C25.1836 31.1651 26.9275 31.5058 28.6155 31.1695C30.3035 30.8331 31.8189 29.8431 32.8758 28.3861C33.9328 26.929 34.4582 25.1057 34.3531 23.2601C34.2479 21.4145 33.5194 19.6741 32.305 18.3672ZM27.3957 28.5831C26.4911 28.5831 25.6067 28.2941 24.8545 27.7527C24.1024 27.2113 23.5161 26.4418 23.1699 25.5415C22.8237 24.6412 22.7331 23.6506 22.9096 22.6948C23.0861 21.7391 23.5217 20.8612 24.1614 20.1721C24.8011 19.4831 25.6161 19.0138 26.5034 18.8237C27.3906 18.6336 28.3103 18.7312 29.1461 19.1041C29.9819 19.477 30.6962 20.1085 31.1988 20.9188C31.7014 21.729 31.9697 22.6816 31.9697 23.6561C31.9683 24.9623 31.4859 26.2146 30.6284 27.1382C29.771 28.0619 28.6084 28.5815 27.3957 28.5831Z" fill="#0077FF"/>
<path d="M30.7058 7.93666H1.43237C1.18977 7.93659 0.957131 7.83275 0.785587 7.64797C0.614044 7.46318 0.517643 7.21258 0.517578 6.95126V2.98338C0.517991 2.3808 0.740355 1.80301 1.13586 1.37686C1.53136 0.950708 2.06768 0.711011 2.62709 0.710388H29.5111C30.0705 0.711004 30.6068 0.950698 31.0024 1.37685C31.3979 1.803 31.6202 2.38079 31.6206 2.98338V6.95126C31.6206 7.21258 31.5242 7.46318 31.3526 7.64797C31.1811 7.83275 30.9484 7.93659 30.7058 7.93666ZM2.34717 5.96586H29.791V2.98338C29.7911 2.94373 29.7839 2.90447 29.7699 2.86782C29.7558 2.83117 29.7352 2.79786 29.7092 2.7698C29.6832 2.74173 29.6524 2.71946 29.6184 2.70426C29.5844 2.68905 29.5479 2.68122 29.5111 2.68119H2.62709C2.59028 2.68122 2.55384 2.68905 2.51985 2.70426C2.48586 2.71946 2.45498 2.74173 2.42899 2.7698C2.40299 2.79786 2.38239 2.83117 2.36835 2.86782C2.35431 2.90447 2.34711 2.94373 2.34717 2.98338V5.96586Z" fill="#0077FF"/>
<path d="M14.3133 19.0814C14.2416 18.8886 14.1318 18.715 13.9915 18.5725C13.8512 18.43 13.6838 18.3222 13.5009 18.2564H13.4997L12.23 17.8009C12.0378 17.7322 11.8663 17.6093 11.7333 17.4449C11.6002 17.2805 11.5106 17.0806 11.4736 16.8662C11.4364 16.6485 11.4539 16.4241 11.5243 16.2161C11.5947 16.0081 11.7153 15.8241 11.8738 15.6832C12.0846 15.4784 12.2513 15.2266 12.3624 14.9453C12.4735 14.664 12.5263 14.3599 12.517 14.0544C12.517 13.0183 11.9096 12.1426 11.1901 12.1426C10.4706 12.1426 9.86318 13.0183 9.86318 14.0544C9.85397 14.3597 9.90664 14.6635 10.0175 14.9447C10.1284 15.2259 10.2948 15.4777 10.5052 15.6826C10.664 15.8234 10.785 16.0074 10.8556 16.2155C10.9262 16.4236 10.9438 16.6483 10.9066 16.8662C10.8697 17.0806 10.78 17.2805 10.6469 17.4449C10.5139 17.6093 10.3424 17.7322 10.1502 17.8009L8.88051 18.2564C8.69727 18.3219 8.52953 18.4298 8.389 18.5724C8.24848 18.715 8.13857 18.889 8.06695 19.0821L8.05859 19.1045H14.3216L14.3133 19.0814Z" fill="#0077FF"/>
<path d="M24.1683 31.9278L21.7651 36.211C21.6407 36.4379 21.4935 36.6494 21.3262 36.8417H29.6082C30.1418 36.8411 30.6533 36.6125 31.0306 36.2061C31.4079 35.7996 31.6201 35.2485 31.6206 34.6738V31.3103C30.3353 32.1685 28.8516 32.6193 27.3394 32.611C26.251 32.6091 25.1736 32.3769 24.1683 31.9278ZM30.7058 5.96576H1.43237C1.19031 5.96768 0.958657 6.07211 0.787484 6.2565C0.616311 6.44088 0.519359 6.69041 0.517578 6.95116V34.6738C0.518095 35.2485 0.73028 35.7996 1.10757 36.206C1.48486 36.6125 1.99643 36.8411 2.53001 36.8417H14.691C14.2769 36.3209 13.9728 35.7094 13.7997 35.0496C13.6265 34.3898 13.5885 33.6973 13.6883 33.0201C13.788 32.3429 14.0231 31.6972 14.3773 31.1275C14.7316 30.5578 15.1964 30.0777 15.7398 29.7206L19.7161 27.1322C19.194 25.7825 18.9894 24.3148 19.1203 22.8594C19.2512 21.4041 19.7137 20.006 20.4666 18.7894C21.2196 17.5728 22.2398 16.5752 23.4366 15.8853C24.6334 15.1954 25.9698 14.8344 27.3272 14.8344C28.843 14.8278 30.3302 15.2784 31.6206 16.1351V6.95116C31.6189 6.69039 31.522 6.44083 31.3508 6.25644C31.1796 6.07204 30.9479 5.96762 30.7058 5.96576ZM6.10403 19.065L6.37237 18.3555C6.5406 17.8955 6.80028 17.4806 7.13317 17.1402C7.46606 16.7997 7.86409 16.5419 8.29933 16.3847L8.60426 16.2796C8.22822 15.6099 8.03004 14.8418 8.03133 14.0591C7.97663 13.0935 8.27763 12.1436 8.86901 11.4155C9.46039 10.6875 10.2944 10.24 11.1902 10.1701C12.086 10.2399 12.9201 10.6874 13.5116 11.4155C14.103 12.1436 14.4041 13.0935 14.3494 14.0592C14.3506 14.8419 14.1523 15.61 13.7761 16.2797L14.0811 16.3848C14.5163 16.5419 14.9144 16.7997 15.2473 17.1402C15.5802 17.4807 15.8398 17.8955 16.008 18.3556L16.2764 19.0651C16.3607 19.287 16.3925 19.528 16.3692 19.7665C16.3458 20.005 16.2678 20.2335 16.1424 20.4315C16.0165 20.6306 15.8473 20.7933 15.6495 20.9056C15.4517 21.0178 15.2314 21.0761 15.0078 21.0753H7.3726C7.14904 21.0761 6.92871 21.0178 6.73092 20.9056C6.53312 20.7933 6.36389 20.6306 6.23803 20.4315C6.11253 20.2335 6.0346 20.0049 6.01121 19.7665C5.98783 19.528 6.01972 19.287 6.10403 19.065ZM13.6297 28.9584H6.31129C6.06867 28.9584 5.83598 28.8546 5.66443 28.6698C5.49287 28.485 5.39649 28.2344 5.39649 27.973C5.39649 27.7117 5.49287 27.4611 5.66443 27.2763C5.83598 27.0915 6.06867 26.9876 6.31129 26.9876H13.6297C13.8723 26.9876 14.105 27.0915 14.2765 27.2763C14.4481 27.4611 14.5444 27.7117 14.5444 27.973C14.5444 28.2344 14.4481 28.485 14.2765 28.6698C14.105 28.8546 13.8723 28.9584 13.6297 28.9584ZM16.0691 25.0168H6.31129C6.06867 25.0168 5.83598 24.913 5.66443 24.7282C5.49287 24.5434 5.39649 24.2928 5.39649 24.0314C5.39649 23.7701 5.49287 23.5195 5.66443 23.3347C5.83598 23.1499 6.06867 23.046 6.31129 23.046H16.0691C16.3117 23.046 16.5444 23.1499 16.716 23.3347C16.8875 23.5195 16.9839 23.7701 16.9839 24.0314C16.9839 24.2928 16.8875 24.5434 16.716 24.7282C16.5444 24.913 16.3117 25.0168 16.0691 25.0168Z" fill="#0077FF"/>
<path d="M5.09155 5.30906C5.59678 5.30906 6.00635 4.86788 6.00635 4.32366C6.00635 3.77944 5.59678 3.33826 5.09155 3.33826C4.58633 3.33826 4.17676 3.77944 4.17676 4.32366C4.17676 4.86788 4.58633 5.30906 5.09155 5.30906Z" fill="#0077FF"/>
<path d="M7.53101 5.30906C8.03623 5.30906 8.4458 4.86788 8.4458 4.32366C8.4458 3.77944 8.03623 3.33826 7.53101 3.33826C7.02578 3.33826 6.61621 3.77944 6.61621 4.32366C6.61621 4.86788 7.02578 5.30906 7.53101 5.30906Z" fill="#0077FF"/>
<path d="M9.97046 5.30906C10.4757 5.30906 10.8853 4.86788 10.8853 4.32366C10.8853 3.77944 10.4757 3.33826 9.97046 3.33826C9.46523 3.33826 9.05566 3.77944 9.05566 4.32366C9.05566 4.86788 9.46523 5.30906 9.97046 5.30906Z" fill="#0077FF"/>
<path d="M28.2664 5.30906H23.3875C23.1448 5.30906 22.9122 5.20524 22.7406 5.02044C22.569 4.83564 22.4727 4.585 22.4727 4.32366C22.4727 4.06231 22.569 3.81167 22.7406 3.62687C22.9122 3.44208 23.1448 3.33826 23.3875 3.33826H28.2664C28.509 3.33826 28.7417 3.44208 28.9132 3.62687C29.0848 3.81167 29.1812 4.06231 29.1812 4.32366C29.1812 4.585 29.0848 4.83564 28.9132 5.02044C28.7417 5.20524 28.509 5.30906 28.2664 5.30906Z" fill="#0077FF"/>
</svg>
