<svg width="264" height="250" viewBox="0 0 264 250" fill="none" xmlns="http://www.w3.org/2000/svg">
<path d="M182.47 247.448C171.337 252.06 158.601 246.513 154.395 235.22L141.284 200.014C135.119 183.459 112.915 180.608 102.768 195.068L81.4058 225.51C74.4112 235.477 60.5042 237.574 50.8818 230.112C41.3251 222.7 39.8378 208.834 47.6053 199.564L71.5875 170.945C82.9801 157.349 74.3656 136.556 56.696 135.001L19.5005 131.727C7.45345 130.667 -1.30176 119.811 0.213442 107.813C1.73908 95.7316 13.0542 87.3788 25.0486 89.4792L61.6805 95.8941C79.081 98.9412 92.763 81.2225 85.4141 65.1584L69.785 30.995C64.7722 20.0374 69.8539 7.10768 80.9862 2.4956C92.1185 -2.11648 104.855 3.43099 109.06 14.7232L122.171 49.93C128.336 66.4846 150.54 69.3357 160.688 54.8755L182.05 24.4338C189.045 14.4662 202.952 12.3696 212.574 19.832C222.131 27.2433 223.618 41.1101 215.85 50.3796L191.868 78.9991C180.476 92.5947 189.09 113.388 206.76 114.943L243.955 118.217C256.002 119.277 264.758 130.133 263.242 142.131C261.717 154.212 250.402 162.565 238.407 160.464L201.775 154.05C184.375 151.002 170.693 168.721 178.042 184.785L193.671 218.949C198.684 229.906 193.602 242.836 182.47 247.448Z" fill="url(#paint0_linear_141_497)"/>
<defs>
<linearGradient id="paint0_linear_141_497" x1="219.791" y1="13.4257" x2="34.7071" y2="240.054" gradientUnits="userSpaceOnUse">
<stop stop-color="white" stop-opacity="0.6"/>
<stop offset="1" stop-color="white" stop-opacity="0"/>
</linearGradient>
</defs>
</svg>
