<svg width="135" height="126" viewBox="0 0 135 126" fill="none" xmlns="http://www.w3.org/2000/svg">
<circle cx="65.7286" cy="63.0001" r="62.4112" fill="#0077FF"/>
<path fill-rule="evenodd" clip-rule="evenodd" d="M67.7138 87.2812C66.6475 88.349 64.9162 88.349 63.8469 87.2812L49.2437 72.6983C48.1744 71.6305 48.172 69.8993 49.2383 68.8315C50.3046 67.7636 52.0359 67.7636 53.1052 68.8315L63.0342 78.7466L62.9824 41.5992C62.9803 40.0891 64.2027 38.8649 65.7128 38.8649C67.2229 38.8649 68.4488 40.0891 68.4509 41.5992L68.5027 78.7466L78.4041 68.8315C79.4704 67.7636 81.2016 67.7636 82.2709 68.8315C83.3402 69.8993 83.3426 71.6305 82.2763 72.6983L67.7138 87.2812Z" fill="white"/>
</svg>
