<svg width="33" height="35" viewBox="0 0 33 35" fill="none" xmlns="http://www.w3.org/2000/svg">
<g clip-path="url(#clip0_141_388)">
<path d="M18.9548 9.82884C19.8408 9.82884 20.559 9.08816 20.559 8.17448C20.559 7.26081 19.8408 6.52013 18.9548 6.52013C18.0688 6.52013 17.3506 7.26081 17.3506 8.17448C17.3506 9.08816 18.0688 9.82884 18.9548 9.82884Z" fill="#0077FF"/>
<path d="M1.61887 15.7839H2.57204V19.5624C2.57204 19.9639 2.80658 20.3259 3.16625 20.4795C3.28535 20.5303 3.41041 20.5551 3.53439 20.5551C3.7849 20.5551 4.03105 20.4542 4.21522 20.2643L8.55985 15.784H24.7947C25.6793 15.784 26.3989 15.0418 26.3989 14.1296V2.15399C26.3989 1.24178 25.6793 0.499634 24.7947 0.499634H1.61887C0.734304 0.499634 0.0146484 1.24178 0.0146484 2.15399V14.1296C0.0146484 15.0418 0.734304 15.7839 1.61887 15.7839ZM4.17839 10.7036C3.82141 10.2973 3.85138 9.66961 4.24531 9.30148C4.63912 8.93342 5.24789 8.96419 5.60493 9.3705C5.69945 9.4781 6.05649 9.82916 6.68059 9.82916C7.04629 9.82916 7.24227 9.61118 7.26152 9.49994C7.27294 9.4341 7.13196 9.2766 6.79328 9.14783C5.98725 8.84124 5.27086 8.51235 5.24077 8.49852C5.19437 8.47722 5.14978 8.45214 5.10723 8.42355C4.46022 7.98852 4.12679 7.22599 4.23704 6.43369C4.35344 5.59771 4.94104 4.91829 5.77055 4.66061C6.59961 4.40306 7.44202 4.53997 8.27449 5.06772C8.72739 5.35478 8.86882 5.9661 8.59046 6.43316C8.31209 6.90022 7.71923 7.04606 7.26639 6.759C6.90294 6.52865 6.62169 6.46955 6.3258 6.56147C6.21832 6.59482 6.15152 6.65107 6.14254 6.71585C6.14119 6.72552 6.14112 6.73279 6.14202 6.73849C6.36918 6.84006 6.8971 7.07147 7.45935 7.28535C8.06434 7.5155 8.5234 7.85882 8.8239 8.30582C9.13147 8.76335 9.24954 9.31141 9.15649 9.84901C8.9593 10.9879 7.91797 11.8145 6.68047 11.8145C5.71074 11.8145 4.79871 11.4095 4.17839 10.7036ZM13.3326 7.18225C13.8641 7.18225 14.2951 7.62668 14.2951 8.17487C14.2951 8.72305 13.8641 9.16748 13.3326 9.16748H12.3098V9.80507H13.4906C14.0222 9.80507 14.4531 10.2495 14.4531 10.7977C14.4531 11.3459 14.0222 11.7903 13.4906 11.7903H11.3473C10.8157 11.7903 10.3848 11.3459 10.3848 10.7977V5.55205C10.3848 5.00386 10.8157 4.55943 11.3473 4.55943H13.4906C14.0222 4.55943 14.4531 5.00386 14.4531 5.55205C14.4531 6.10023 14.0222 6.54466 13.4906 6.54466H12.3098V7.18225H13.3326ZM15.4259 8.17487C15.4259 6.168 17.0091 4.53528 18.9552 4.53528C20.9012 4.53528 22.4845 6.168 22.4845 8.17487C22.4845 10.1817 20.9012 11.8145 18.9552 11.8145C17.0091 11.8145 15.4259 10.1817 15.4259 8.17487Z" fill="#0077FF"/>
<path d="M31.9067 32.3952H30.9387V19.285C30.9387 18.3728 30.219 17.6307 29.3345 17.6307H26.7567C25.8722 17.6307 25.1525 18.3728 25.1525 19.285V32.3952H23.203V23.7282C23.203 22.816 22.4833 22.0738 21.5987 22.0738H19.021C18.1364 22.0738 17.4168 22.816 17.4168 23.7282V32.3952H15.4672V21.8752C15.4672 20.963 14.7475 20.2209 13.863 20.2209H11.2852C10.4007 20.2209 9.68101 20.963 9.68101 21.8752V32.3952H7.73149V26.3827C7.73149 25.4705 7.01184 24.7284 6.12727 24.7284H3.5494C2.66483 24.7284 1.94517 25.4705 1.94517 26.3827V32.3952H0.977184C0.445608 32.3952 0.0146484 32.8396 0.0146484 33.3878C0.0146484 33.936 0.445608 34.3804 0.977184 34.3804H31.9067C32.4383 34.3804 32.8692 33.936 32.8692 33.3878C32.8692 32.8396 32.4383 32.3952 31.9067 32.3952Z" fill="#0077FF"/>
</g>
<defs>
<clipPath id="clip0_141_388">
<rect width="32.8543" height="33.881" fill="white" transform="translate(0.0146484 0.499512)"/>
</clipPath>
</defs>
</svg>
