<svg width="61" height="61" viewBox="0 0 61 61" fill="none" xmlns="http://www.w3.org/2000/svg">
<circle cx="30.8027" cy="30.3052" r="30" fill="#0077FF"/>
<g clip-path="url(#clip0_141_321)">
<path fill-rule="evenodd" clip-rule="evenodd" d="M30.8031 18.3052C37.1231 18.3052 42.8031 23.2785 42.8031 30.5985C43.5897 31.0118 44.1364 31.8252 44.1364 32.7585V35.8252C44.1364 36.7852 43.5897 37.5985 42.8031 38.0118V39.6385C42.8031 41.1052 41.6031 42.3052 40.1364 42.3052H29.4697V39.6385H40.1364V30.1718C40.1364 25.0118 35.9631 20.8385 30.8031 20.8385C25.6431 20.8385 21.4697 25.0118 21.4697 30.1718V38.3052H20.1364C18.6697 38.3052 17.4697 37.1052 17.4697 35.6385V32.9718C17.4697 31.9852 18.0031 31.1318 18.8031 30.6785C18.8031 23.1718 24.5497 18.3052 30.8031 18.3052ZM28.1364 31.6385C28.1364 32.3749 27.5394 32.9718 26.8031 32.9718C26.0667 32.9718 25.4697 32.3749 25.4697 31.6385C25.4697 30.9021 26.0667 30.3052 26.8031 30.3052C27.5394 30.3052 28.1364 30.9021 28.1364 31.6385ZM34.8031 32.9718C35.5394 32.9718 36.1364 32.3749 36.1364 31.6385C36.1364 30.9021 35.5394 30.3052 34.8031 30.3052C34.0667 30.3052 33.4697 30.9021 33.4697 31.6385C33.4697 32.3749 34.0667 32.9718 34.8031 32.9718ZM30.8697 22.3052C34.8564 22.3052 38.1631 25.2118 38.8031 29.0118C34.6431 28.9718 31.0564 26.5585 29.3097 23.0518C28.6031 26.6252 26.1231 29.5585 22.8297 30.9052C22.4831 25.6518 26.8297 22.3052 30.8697 22.3052Z" fill="white"/>
</g>
<defs>
<clipPath id="clip0_141_321">
<rect width="32" height="32" fill="white" transform="translate(14.8027 14.3052)"/>
</clipPath>
</defs>
</svg>
