<svg width="61" height="61" viewBox="0 0 61 61" fill="none" xmlns="http://www.w3.org/2000/svg">
<circle cx="30.8027" cy="30.3052" r="30" fill="#0077FF"/>
<g clip-path="url(#clip0_141_314)">
<path d="M45.4696 30.3052L42.2162 26.5852L42.6696 21.6652L37.8562 20.5718L35.3362 16.3052L30.8029 18.2518L26.2696 16.3052L23.7496 20.5585L18.9362 21.6385L19.3896 26.5718L16.1362 30.3052L19.3896 34.0252L18.9362 38.9585L23.7496 40.0518L26.2696 44.3052L30.8029 42.3452L35.3362 44.2918L37.8562 40.0385L42.6696 38.9452L42.2162 34.0252L45.4696 30.3052ZM28.2562 36.5985L23.1896 31.5185L25.1629 29.5452L28.2562 32.6518L36.0562 24.8252L38.0296 26.7985L28.2562 36.5985Z" fill="white"/>
</g>
<defs>
<clipPath id="clip0_141_314">
<rect width="32" height="32" fill="white" transform="translate(14.8027 14.3052)"/>
</clipPath>
</defs>
</svg>
