<svg width="1438" height="480" viewBox="0 0 1438 480" fill="none" xmlns="http://www.w3.org/2000/svg">
<path d="M1440.28 479.649L1440.28 94.7466C1420.78 107.521 1389.99 123.11 1355.62 123.11C1301.06 123.11 1285.5 70.3484 1214.65 70.3484C1143.79 70.3484 1151.83 119.912 1089.83 119.912C1057.14 119.912 1039.57 103.908 1018.08 88.767C999.77 94.9384 978.336 99.1274 950.612 99.1274C920.392 99.1274 897.181 91.9646 875.242 82.2757C842.886 105.938 823.636 142.296 764.468 142.296C694.955 142.296 649.301 91.6928 595.054 56.6784C579.308 63.3935 561.666 68.7496 532.958 68.7496C489.92 68.7496 475.278 44.0636 446.523 30.1059C385.867 46.9415 379.074 92.732 319.45 92.732C246.385 92.732 230.879 20.7847 120.176 20.7847C57.6244 20.7847 20.5396 40.1785 0.0889393 57.0621L0.0888672 479.649L1440.28 479.649Z" fill="url(#paint0_linear_141_249)"/>
<path opacity="0.23" d="M1440.28 479.649L1440.28 73.5302C1419.7 83.4749 1392.17 92.7321 1361.07 92.7321C1293.86 92.7321 1267.45 38.3719 1169.04 38.3719C1070.63 38.3719 1056.23 99.1274 950.612 99.1274C857 99.1274 830.596 30.3777 700.98 30.3777C607.368 30.3777 609.768 68.7496 532.958 68.7496C472.95 68.7496 468.15 20.7847 403.341 20.7847C352.935 20.7847 336.132 44.7672 292.927 44.7672C237.72 44.7672 213.717 -5.1472e-05 117.704 -5.577e-05C65.8335 -5.80921e-05 25.8683 13.0624 0.0889448 25.0856L0.0888672 479.649L1440.28 479.649Z" fill="url(#paint1_linear_141_249)"/>
<path opacity="0.3" d="M1440.28 479.649L1440.28 73.5302C1419.7 83.4749 1392.17 92.7321 1361.07 92.7321C1293.86 92.7321 1267.45 38.3719 1169.04 38.3719C1096.45 38.3719 1069.57 71.4197 1018.08 88.767C998.81 75.2089 976.415 62.3543 937.146 62.3543C909.495 62.3543 890.844 70.8281 875.242 82.2758C829.204 61.9067 788.759 30.3777 700.98 30.3777C642.364 30.3777 621.385 45.4228 595.054 56.6785C566.346 38.1481 535.262 23.9824 496.953 23.9824C476.599 23.9824 460.181 26.3007 446.523 30.1059C435.193 24.6219 421.656 20.7848 403.341 20.7848C352.935 20.7848 336.132 44.7672 292.927 44.7672C237.72 44.7672 213.717 -2.09544e-05 117.704 -2.52525e-05C65.8335 -2.75745e-05 25.8683 13.0624 0.0889448 25.0856L0.0888672 479.649L1440.28 479.649Z" fill="url(#paint2_linear_141_249)"/>
<defs>
<linearGradient id="paint0_linear_141_249" x1="571.704" y1="334.943" x2="556.277" y2="70.1374" gradientUnits="userSpaceOnUse">
<stop stop-color="#CDFBF1" stop-opacity="0"/>
<stop offset="1" stop-color="#DBEBFD"/>
</linearGradient>
<linearGradient id="paint1_linear_141_249" x1="571.704" y1="328.388" x2="554.853" y2="51.6749" gradientUnits="userSpaceOnUse">
<stop stop-color="#CDFBF1" stop-opacity="0"/>
<stop offset="1" stop-color="#DBEBFD"/>
</linearGradient>
<linearGradient id="paint2_linear_141_249" x1="571.704" y1="328.388" x2="554.853" y2="51.6749" gradientUnits="userSpaceOnUse">
<stop stop-color="#CDFBF1" stop-opacity="0"/>
<stop offset="1" stop-color="#DBEBFD"/>
</linearGradient>
</defs>
</svg>
