<svg width="1441" height="481" viewBox="0 0 1441 481" fill="none" xmlns="http://www.w3.org/2000/svg">
<path d="M0.634888 0.839291L0.634822 385.741C20.1253 372.967 50.9213 357.378 85.2938 357.378C139.853 357.378 155.407 410.14 226.264 410.14C297.121 410.14 289.08 360.576 351.08 360.576C383.772 360.576 401.343 376.58 422.825 391.721C441.14 385.55 462.575 381.361 490.298 381.361C520.518 381.361 543.729 388.523 565.668 398.212C598.024 374.55 617.275 338.192 676.442 338.192C745.955 338.192 791.609 388.795 845.856 423.81C861.602 417.095 879.244 411.738 907.952 411.738C950.99 411.738 965.632 436.424 994.387 450.382C1055.04 433.547 1061.84 387.756 1121.46 387.756C1194.53 387.756 1210.03 459.703 1320.73 459.703C1383.29 459.703 1420.37 440.31 1440.82 423.426L1440.82 0.839355L0.634888 0.839291Z" fill="url(#paint0_linear_141_245)"/>
<path opacity="0.23" d="M0.634888 0.839291L0.634818 406.958C21.2054 397.013 48.737 387.756 79.845 387.756C147.054 387.756 173.457 442.116 271.87 442.116C370.283 442.116 384.685 381.361 490.298 381.361C583.91 381.361 610.314 450.11 739.93 450.11C833.543 450.11 831.142 411.738 907.952 411.738C967.96 411.738 972.761 459.703 1037.57 459.703C1087.98 459.703 1104.78 435.721 1147.98 435.721C1203.19 435.721 1227.19 480.488 1323.21 480.488C1375.08 480.488 1415.04 467.426 1440.82 455.402L1440.82 0.839355L0.634888 0.839291Z" fill="url(#paint1_linear_141_245)"/>
<path opacity="0.3" d="M0.634888 0.839291L0.634818 406.958C21.2054 397.013 48.737 387.756 79.845 387.756C147.054 387.756 173.457 442.116 271.87 442.116C344.455 442.116 371.339 409.068 422.825 391.721C442.1 405.279 464.495 418.134 503.764 418.134C531.415 418.134 550.066 409.66 565.668 398.212C611.706 418.581 652.151 450.11 739.93 450.11C798.546 450.11 819.525 435.065 845.856 423.81C874.564 442.34 905.648 456.506 943.957 456.506C964.312 456.506 980.73 454.187 994.387 450.382C1005.72 455.866 1019.25 459.703 1037.57 459.703C1087.98 459.703 1104.78 435.721 1147.98 435.721C1203.19 435.721 1227.19 480.488 1323.21 480.488C1375.08 480.488 1415.04 467.426 1440.82 455.402L1440.82 0.839355L0.634888 0.839291Z" fill="url(#paint2_linear_141_245)"/>
<defs>
<linearGradient id="paint0_linear_141_245" x1="869.206" y1="145.545" x2="884.634" y2="410.351" gradientUnits="userSpaceOnUse">
<stop stop-color="#CDFBF1" stop-opacity="0"/>
<stop offset="1" stop-color="#DBEBFD"/>
</linearGradient>
<linearGradient id="paint1_linear_141_245" x1="869.206" y1="152.1" x2="886.058" y2="428.813" gradientUnits="userSpaceOnUse">
<stop stop-color="#CDFBF1" stop-opacity="0"/>
<stop offset="1" stop-color="#DBEBFD"/>
</linearGradient>
<linearGradient id="paint2_linear_141_245" x1="869.206" y1="152.1" x2="886.058" y2="428.813" gradientUnits="userSpaceOnUse">
<stop stop-color="#CDFBF1" stop-opacity="0"/>
<stop offset="1" stop-color="#DBEBFD"/>
</linearGradient>
</defs>
</svg>
