<svg width="35" height="34" viewBox="0 0 35 34" fill="none" xmlns="http://www.w3.org/2000/svg">
<path d="M34.2247 8.0805V3.1583C34.2247 1.52984 32.8999 0.204987 31.2714 0.204987H3.57587C1.94742 0.204987 0.622559 1.52984 0.622559 3.1583V8.0805H34.2247ZM23.3303 4.14274H29.2369C29.7806 4.14274 30.2214 4.58351 30.2214 5.12718C30.2214 5.67085 29.7806 6.11162 29.2369 6.11162H23.3303C22.7866 6.11162 22.3458 5.67085 22.3458 5.12718C22.3458 4.58351 22.7866 4.14274 23.3303 4.14274ZM13.4859 4.14274C14.0296 4.14274 14.4703 4.58351 14.4703 5.12718C14.4703 5.67085 14.0296 6.11162 13.4859 6.11162C12.9422 6.11162 12.5015 5.67085 12.5015 5.12718C12.5015 4.58351 12.9422 4.14274 13.4859 4.14274ZM9.54814 4.14274C10.0918 4.14274 10.5326 4.58351 10.5326 5.12718C10.5326 5.67085 10.0918 6.11162 9.54814 6.11162C9.00446 6.11162 8.5637 5.67085 8.5637 5.12718C8.5637 4.58351 9.00446 4.14274 9.54814 4.14274ZM5.61038 4.14274C6.15405 4.14274 6.59482 4.58351 6.59482 5.12718C6.59482 5.67085 6.15405 6.11162 5.61038 6.11162C5.06671 6.11162 4.62594 5.67085 4.62594 5.12718C4.62594 4.58351 5.06671 4.14274 5.61038 4.14274Z" fill="#0077FF"/>
<path d="M0.622559 10.0493V30.7225C0.622559 32.3509 1.94742 33.6758 3.57587 33.6758H31.2714C32.8999 33.6758 34.2247 32.3509 34.2247 30.7225V10.0493H0.622559ZM12.132 24.0471C12.5566 24.3868 12.6254 25.0062 12.2857 25.4308C11.9462 25.8553 11.3266 25.9242 10.9021 25.5845L5.97987 21.6467C5.48772 21.2532 5.48739 20.5032 5.97987 20.1093L10.9021 16.1716C11.3264 15.8319 11.946 15.9007 12.2857 16.3253C12.6254 16.7498 12.5566 17.3694 12.132 17.7089L8.17071 20.8781L12.132 24.0471ZM21.2818 14.3748L15.3752 28.157C15.161 28.6566 14.5824 28.8883 14.0825 28.674C13.5828 28.4599 13.3513 27.8811 13.5655 27.3814L19.4721 13.5992C19.6863 13.0995 20.2651 12.868 20.7648 13.0822C21.2645 13.2963 21.496 13.8751 21.2818 14.3748ZM28.8674 21.6468L23.9452 25.5846C23.5214 25.9237 22.9017 25.856 22.5616 25.4309C22.2219 25.0063 22.2907 24.3868 22.7153 24.0472L26.6766 20.8781L22.7153 17.7091C22.2907 17.3694 22.2219 16.75 22.5616 16.3254C22.9011 15.9008 23.5207 15.832 23.9452 16.1717L28.8674 20.1094C29.3596 20.503 29.3599 21.2529 28.8674 21.6468Z" fill="#0077FF"/>
</svg>
